<?xml version="1.0" encoding="UTF-8"?>
<svg width="256px" height="256px" viewBox="0 0 256 256" version="1.1" xmlns="http://www.w3.org/2000/svg">
    <g>
        <polygon fill="#DD0031" points="128 0 128 0 128 0 0 45.9 19.6 216.8 128 278.6 128 278.6 128 278.6 236.4 216.8 256 45.9"/>
        <polygon fill="#C3002F" points="128 0 128 30.8 128 30.8 128 172.3 128 172.3 128 278.6 128 278.6 236.4 216.8 256 45.9"/>
        <path fill="#FFFFFF" d="M128,30.8 L47.9,194.8 L85.7,194.8 L104.3,150.5 L151.6,150.5 L170.2,194.8 L208,194.8 L128,30.8 Z M142.2,120.9 L113.8,120.9 L128,82.1 L142.2,120.9 Z"/>
    </g>
</svg> 