<?xml version="1.0" encoding="UTF-8"?>
<svg width="256px" height="256px" viewBox="0 0 256 256" version="1.1" xmlns="http://www.w3.org/2000/svg">
    <g>
        <path fill="#092E20" d="M128,0 C57.308,0 0,57.308 0,128 C0,198.692 57.308,256 128,256 C198.692,256 256,198.692 256,128 C256,57.308 198.692,0 128,0 Z M128,240 C66.231,240 16,189.769 16,128 C16,66.231 66.231,16 128,16 C189.769,16 240,66.231 240,128 C240,189.769 189.769,240 128,240 Z"/>
        <path fill="#092E20" d="M90.4,64 L115.2,64 L115.2,179.2 C102.4,181.6 92.8,182.4 84.8,182.4 C55.2,182.4 41.6,169.6 41.6,144 C41.6,119.2 56,105.6 84.8,105.6 C88,105.6 90.4,105.6 93.6,106.4 L93.6,64 L90.4,64 Z M93.6,123.2 C91.2,122.4 89.6,122.4 87.2,122.4 C72,122.4 64.8,130.4 64.8,144.8 C64.8,158.4 71.2,166.4 86.4,166.4 C88.8,166.4 90.4,166.4 93.6,165.6 L93.6,123.2 Z"/>
        <path fill="#092E20" d="M174.4,105.6 L174.4,166.4 C174.4,189.6 172,200.8 166.4,209.6 C161.6,217.6 155.2,222.4 142.4,225.6 L119.2,217.6 C132,214.4 139.2,210.4 143.2,203.2 C147.2,196 148.8,186.4 148.8,166.4 L148.8,105.6 L174.4,105.6 Z M148.8,64 L174.4,64 L174.4,89.6 L148.8,89.6 L148.8,64 Z"/>
    </g>
</svg> 