<?xml version="1.0" encoding="UTF-8"?>
<svg width="256px" height="256px" viewBox="0 0 256 256" version="1.1" xmlns="http://www.w3.org/2000/svg">
    <g>
        <path fill="#E10098" d="M128,0 C57.308,0 0,57.308 0,128 C0,198.692 57.308,256 128,256 C198.692,256 256,198.692 256,128 C256,57.308 198.692,0 128,0 Z M128,240 C66.231,240 16,189.769 16,128 C16,66.231 66.231,16 128,16 C189.769,16 240,66.231 240,128 C240,189.769 189.769,240 128,240 Z"/>
        <path fill="#E10098" d="M128,64 L76.8,96 L76.8,160 L128,192 L179.2,160 L179.2,96 L128,64 Z M128,176 L89.6,152 L89.6,104 L128,80 L166.4,104 L166.4,152 L128,176 Z"/>
        <circle fill="#E10098" cx="128" cy="128" r="16"/>
    </g>
</svg> 