<?xml version="1.0" encoding="UTF-8"?>
<svg width="256px" height="256px" viewBox="0 0 256 256" version="1.1" xmlns="http://www.w3.org/2000/svg">
    <g>
        <path fill="#47A248" d="M134.629,4.67205674 C127.772,1.55735225 120.915,-1.55735225 114.057,1.55735225 C107.2,4.67205674 93.4858,14.0161702 89.7144,23.3602837 C85.943,32.7043972 82.1716,52.5297107 82.1716,62.9109107 C82.1716,73.2921107 89.7144,98.4989377 93.4858,107.843051 C97.2572,117.187165 114.057,136.374592 120.915,142.566183 C127.772,148.757775 134.629,155.587253 134.629,155.587253 C134.629,155.587253 141.486,148.757775 148.344,142.566183 C155.201,136.374592 172.001,117.187165 175.772,107.843051 C179.544,98.4989377 187.087,73.2921107 187.087,62.9109107 C187.087,52.5297107 183.315,32.7043972 179.544,23.3602837 C175.772,14.0161702 162.058,4.67205674 155.201,1.55735225 C148.344,-1.55735225 141.486,1.55735225 134.629,4.67205674 Z"/>
        <path fill="#FFFFFF" d="M134.629,136.374592 C134.629,136.374592 131.544,133.898174 128.458,130.783469 C125.372,127.668765 116.458,117.187165 113.372,111.633459 C110.286,106.079754 107.2,97.3735809 107.2,88.6674 C107.2,79.9612191 110.286,71.2550382 113.372,65.7013326 C116.458,60.1476271 122.286,54.5939215 125.372,51.4792171 C128.458,48.3645126 134.629,45.2498082 134.629,45.2498082 C134.629,45.2498082 140.8,48.3645126 143.886,51.4792171 C146.972,54.5939215 152.8,60.1476271 155.886,65.7013326 C158.972,71.2550382 162.058,79.9612191 162.058,88.6674 C162.058,97.3735809 158.972,106.079754 155.886,111.633459 C152.8,117.187165 143.886,127.668765 140.8,130.783469 C137.715,133.898174 134.629,136.374592 134.629,136.374592 Z"/>
    </g>
</svg> 