<?xml version="1.0" encoding="UTF-8"?>
<svg width="512" height="512" viewBox="0 0 512 512" fill="none" xmlns="http://www.w3.org/2000/svg">
    <path d="M227.84 49.92L52.48 152.32C47.36 155.52 44.16 161.28 44.16 167.04V371.84C44.16 377.6 47.36 383.36 52.48 386.56L227.84 489.6C232.96 492.8 239.36 492.8 244.48 489.6L419.84 386.56C424.96 383.36 428.16 377.6 428.16 371.84V167.04C428.16 161.28 424.96 155.52 419.84 152.32L244.48 49.92C239.36 46.72 232.96 46.72 227.84 49.92Z" fill="#E0234E"/>
    <path d="M236.16 107.52L120.32 174.72C117.76 176.32 116.16 179.52 116.16 182.72V317.12C116.16 320.32 117.76 323.52 120.32 325.12L236.16 392.32C238.72 393.92 241.92 393.92 244.48 392.32L360.32 325.12C362.88 323.52 364.48 320.32 364.48 317.12V182.72C364.48 179.52 362.88 176.32 360.32 174.72L244.48 107.52C241.92 105.92 238.72 105.92 236.16 107.52Z" fill="white"/>
    <path d="M236.16 169.6L172.16 207.36C169.6 208.96 168 212.16 168 215.36V290.88C168 294.08 169.6 297.28 172.16 298.88L236.16 336.64C238.72 338.24 241.92 338.24 244.48 336.64L308.48 298.88C311.04 297.28 312.64 294.08 312.64 290.88V215.36C312.64 212.16 311.04 208.96 308.48 207.36L244.48 169.6C241.92 168 238.72 168 236.16 169.6Z" fill="#E0234E"/>
</svg> 