<?xml version="1.0" encoding="UTF-8"?>
<svg width="256px" height="256px" viewBox="0 0 256 256" version="1.1" xmlns="http://www.w3.org/2000/svg">
    <g>
        <path fill="#539E43" d="M128,0 C123.493,0 119.093,1.173 115.2,3.52 L31.467,52.053 C23.573,56.533 19.2,64.853 19.2,73.813 L19.2,170.88 C19.2,179.84 23.573,188.16 31.467,192.64 L115.2,241.173 C119.093,243.52 123.493,244.693 128,244.693 C132.507,244.693 136.907,243.52 140.8,241.173 L224.533,192.64 C232.427,188.16 236.8,179.84 236.8,170.88 L236.8,73.813 C236.8,64.853 232.427,56.533 224.533,52.053 L140.8,3.52 C136.907,1.173 132.507,0 128,0"/>
        <path fill="#FFFFFF" d="M128,122.88 L76.8,96 L76.8,147.2 L128,174.08 L179.2,147.2 L179.2,96 L128,122.88 Z"/>
    </g>
</svg> 