<?xml version="1.0" encoding="UTF-8"?>
<svg width="512" height="512" viewBox="0 0 512 512" fill="none" xmlns="http://www.w3.org/2000/svg">
    <path d="M256 102.4C187.733 102.4 143.36 136.533 123.733 204.8C142.933 170.667 167.467 153.6 197.333 153.6C244.267 153.6 273.067 185.6 298.667 214.4C324.267 243.2 347.733 268.8 405.333 268.8C473.6 268.8 517.973 234.667 537.6 166.4C518.4 200.533 493.867 217.6 464 217.6C417.067 217.6 388.267 185.6 362.667 156.8C337.067 128 313.6 102.4 256 102.4ZM106.667 243.2C38.4 243.2 -6.10352e-05 277.333 -6.10352e-05 345.6C19.2 311.467 43.7333 294.4 73.6 294.4C120.533 294.4 149.333 326.4 174.933 355.2C200.533 384 224 409.6 281.6 409.6C349.867 409.6 394.24 375.467 413.867 307.2C394.667 341.333 370.133 358.4 340.267 358.4C293.333 358.4 264.533 326.4 238.933 297.6C213.333 268.8 189.867 243.2 106.667 243.2Z" fill="#06B6D4"/>
</svg> 