<?xml version="1.0" encoding="UTF-8"?>
<svg width="512" height="512" viewBox="0 0 512 512" fill="none" xmlns="http://www.w3.org/2000/svg">
    <rect width="512" height="512" fill="#3178C6"/>
    <path d="M317.219 354.848V380.928C325.395 385.472 334.891 388.864 345.707 391.104C356.523 393.344 367.853 394.464 379.699 394.464C391.205 394.464 402.021 393.216 412.149 390.72C422.277 388.224 431.133 384.32 438.717 379.008C446.301 373.696 452.291 366.944 456.688 358.752C461.085 350.56 463.283 340.736 463.283 329.28C463.283 321.088 462.035 313.92 459.539 307.776C457.043 301.632 453.411 296.064 448.645 291.072C443.878 286.08 438.077 281.6 431.24 277.632C424.403 273.664 416.717 269.952 408.181 266.496C401.685 263.744 395.824 261.12 390.597 258.624C385.371 256.128 380.947 253.632 377.325 251.136C373.704 248.64 370.925 246.016 368.989 243.264C367.053 240.512 366.085 237.376 366.085 233.856C366.085 230.592 366.925 227.712 368.605 225.216C370.285 222.72 372.605 220.608 375.565 218.88C378.525 217.152 382.024 215.84 386.061 214.944C390.099 214.048 394.521 213.6 399.328 213.6C402.971 213.6 406.808 213.92 410.845 214.56C414.883 215.2 418.92 216.192 422.957 217.536C426.995 218.88 430.904 220.544 434.685 222.528C438.467 224.512 441.939 226.752 445.101 229.248V205.056C437.469 201.856 429.453 199.488 421.053 197.952C412.653 196.416 402.928 195.648 391.877 195.648C380.371 195.648 369.683 196.992 359.811 199.68C349.939 202.368 341.339 206.4 334.011 211.776C326.683 217.152 320.949 223.808 316.811 231.744C312.672 239.68 310.603 248.768 310.603 259.008C310.603 271.808 314.384 282.88 321.947 292.224C329.509 301.568 340.859 309.632 355.995 316.416C362.832 319.424 369.157 322.304 374.971 325.056C380.784 327.808 385.845 330.624 390.152 333.504C394.459 336.384 397.845 339.456 400.312 342.72C402.779 345.984 404.013 349.632 404.013 353.664C404.013 356.672 403.301 359.424 401.877 361.92C400.453 364.416 398.389 366.528 395.685 368.256C392.981 369.984 389.707 371.296 385.864 372.192C382.021 373.088 377.709 373.536 372.928 373.536C364.411 373.536 356.107 371.872 348.016 368.544C339.925 365.216 328.672 359.392 317.219 354.848ZM265.835 209.472H217.835V386.688H265.835V209.472Z" fill="white"/>
</svg> 